M48
;GenerationSoftware,Autodesk,EAGLE,9.6.2*%
;CreationDate,2021-03-02T12:10:56Z*%
FMAT,2
ICI,OFF
METRIC,TZ,000.000
T2C0.200
T1C0.508
%
G90
M71
T1
X109469Y49172
X1293Y19408
X1293Y18138
X1293Y16868
X1293Y15598
X1293Y20678
X2563Y19408
X2563Y18138
X2563Y16868
X2563Y15598
X2563Y20678
X23800Y19408
X23800Y18138
X23800Y16868
X23800Y15598
X23800Y20678
X25070Y19408
X25070Y18138
X25070Y16868
X25070Y15598
X25070Y20678
X46309Y19408
X46309Y18138
X46309Y16868
X46309Y15598
X46309Y20678
X47579Y19408
X47579Y18138
X47579Y16868
X47579Y15598
X47579Y20678
X68816Y19408
X68816Y18138
X68816Y16868
X68816Y15598
X68816Y20678
X70086Y19408
X70086Y18138
X70086Y16868
X70086Y15598
X70086Y20678
X91326Y19408
X91326Y18138
X91326Y16868
X91326Y15598
X91326Y20678
X92596Y19408
X92596Y18138
X92596Y16868
X92596Y15598
X92596Y20678
X20706Y50442
X20706Y51712
X20706Y52982
X20706Y54252
X20706Y49172
X19436Y50442
X19436Y51712
X19436Y52982
X19436Y54252
X19436Y49172
X43215Y50442
X43215Y51712
X43215Y52982
X43215Y54252
X43215Y49172
X41945Y50442
X41945Y51712
X41945Y52982
X41945Y54252
X41945Y49172
X65722Y50442
X65722Y51712
X65722Y52982
X65722Y54252
X65722Y49172
X64452Y50442
X64452Y51712
X64452Y52982
X64452Y54252
X64452Y49172
X88232Y50442
X88232Y51712
X88232Y52982
X88232Y54252
X88232Y49172
X86962Y50442
X86962Y51712
X86962Y52982
X86962Y54252
X86962Y49172
X110739Y50442
X110739Y51712
X110739Y52982
X110739Y54252
X110739Y49172
X109469Y50442
X109469Y51712
X109469Y52982
X109469Y54252
T2
X8128Y9423
X8026Y14224
X9200Y7400
X8814Y13411
X8978Y10200
X9600Y9400
X9600Y12600
X15200Y9400
X15521Y7112
X17537Y14337
X16818Y3251
X17979Y15179
X17475Y3251
X16194Y11900
X15802Y3251
X17120Y13520
X16459Y3861
X16792Y12800
X18400Y16200
X14400Y9400
X10200Y7200
X10363Y7722
X6400Y11000
X6707Y4000
X6171Y2800
X6065Y7000
X6400Y11800
X6268Y9400
X12000Y10200
X11600Y7200
X7140Y9400
X7214Y11074
X17400Y13883
X7114Y2778
X7200Y8700
X7671Y3150
X7214Y10160
X10400Y11000
X10871Y7678
X8543Y4129
X5644Y4550
X5600Y12600
X4901Y13411
X4901Y4671
X7200Y11800
X2600Y3000
X8600Y18925
X3200Y3406
X9600Y18400
X17758Y14758
X18200Y15600
X15171Y2845
X15210Y8710
X14708Y3311
X14945Y7223
X13600Y8600
X12600Y3600
X13200Y7600
X12250Y3892
X8044Y18800
X8000Y17400
X6400Y17400
X5312Y14398
X8000Y16600
X3829Y3048
X4486Y3471
X5334Y16916
X5131Y15138
X4877Y2896
X5358Y16104
X6400Y13400
X18400Y17900
X11100Y21500
X32107Y15800
X34507Y16600
X36107Y15000
X33707Y13400
X37707Y12578
X28005Y17721
X28907Y14178
X31307Y11800
X32907Y10200
X34507Y11000
X37897Y7778
X31307Y9378
X30507Y10200
X42099Y13454
X30507Y19600
X38761Y17670
X28107Y7778
X24107Y3200
X31757Y3250
X33257Y3200
X34007Y3600
X34757Y3200
X41257Y3200
X42507Y3327
X38907Y17000
X27307Y10400
X33907Y19400
X24507Y4600
X31307Y20400
X27307Y6300
X42557Y17150
X42500Y19440
X42773Y11106
X39517Y8262
X22907Y6800
X22907Y9200
X43843Y14418
X30907Y4800
X26807Y20200
X32907Y15800
X31307Y15800
X29872Y13400
X31307Y11000
X32907Y9400
X35307Y10200
X36107Y11778
X36107Y14200
X36107Y12600
X34507Y13400
X33707Y11800
X32907Y13400
X30507Y12600
X42099Y11554
X27307Y12800
X28107Y19600
X31507Y19400
X23107Y5400
X39707Y18600
X27307Y9500
X34107Y20400
X42681Y17712
X40279Y10290
X44097Y7062
X42931Y6138
X42931Y2948
X43173Y13592
X22907Y12200
X24207Y3750
X22907Y8200
X31050Y7100
X34507Y15800
X43507Y6800
X43607Y10400
X30432Y11786
X28806Y14935
X32057Y13310
X28908Y16459
X30432Y10973
X26977Y10058
X30533Y13386
X27587Y15646
X38357Y18271
X40541Y19761
X31956Y11786
X26774Y10566
X32907Y12600
X33524Y18217
X34707Y18800
X32907Y11800
X33581Y8636
X23029Y7746
X26107Y20800
X32907Y8600
X41807Y3900
X41807Y11100
X44107Y10200
X42464Y4400
X41907Y4900
X41107Y17200
X30836Y7752
X30635Y9423
X30533Y14224
X31707Y7400
X31321Y13411
X31485Y10200
X32107Y9400
X32107Y12600
X37707Y9400
X38028Y7112
X40044Y14337
X39325Y3251
X40486Y15179
X39982Y3251
X38701Y11900
X38309Y3251
X39627Y13520
X38966Y3861
X39299Y12800
X40907Y16200
X36907Y9400
X32707Y7200
X32870Y7722
X28907Y11000
X29214Y4000
X28678Y2800
X28572Y7000
X28907Y11800
X28775Y9400
X34507Y10200
X34107Y7200
X29647Y9400
X29721Y11074
X39907Y13883
X29621Y2778
X29707Y8700
X30178Y3150
X29721Y10160
X32907Y11000
X33378Y7678
X31050Y4129
X28151Y4550
X28107Y12600
X27408Y13411
X27408Y4671
X29707Y11800
X25107Y3000
X31107Y18925
X25707Y3406
X32107Y18400
X40265Y14758
X40707Y15600
X37678Y2845
X37717Y8710
X37215Y3311
X37452Y7223
X36107Y8600
X35107Y3600
X35707Y7600
X34757Y3892
X30551Y18800
X30507Y17400
X28907Y17400
X27819Y14398
X30507Y16600
X26336Y3048
X26993Y3471
X27841Y16916
X27638Y15138
X27384Y2896
X27865Y16104
X28907Y13400
X40907Y17900
X33607Y21500
X54616Y15800
X57016Y16600
X58616Y15000
X56216Y13400
X60216Y12578
X50515Y17721
X51416Y14178
X53816Y11800
X55416Y10200
X57016Y11000
X60407Y7778
X53816Y9378
X53016Y10200
X64608Y13454
X53016Y19600
X61270Y17670
X50616Y7778
X46616Y3200
X54266Y3250
X55766Y3200
X56516Y3600
X57266Y3200
X63766Y3200
X65016Y3327
X61416Y17000
X49816Y10400
X56416Y19400
X47016Y4600
X53816Y20400
X49816Y6300
X65066Y17150
X65009Y19440
X65282Y11106
X62026Y8262
X45416Y6800
X45416Y9200
X66352Y14418
X53416Y4800
X49316Y20200
X55416Y15800
X53816Y15800
X52381Y13400
X53816Y11000
X55416Y9400
X57816Y10200
X58616Y11778
X58616Y14200
X58616Y12600
X57016Y13400
X56216Y11800
X55416Y13400
X53016Y12600
X64608Y11554
X49816Y12800
X50616Y19600
X54016Y19400
X45616Y5400
X62216Y18600
X49816Y9500
X56616Y20400
X65190Y17712
X62788Y10290
X66606Y7062
X65440Y6138
X65440Y2948
X65682Y13592
X45416Y12200
X46716Y3750
X45416Y8200
X53559Y7100
X57016Y15800
X66016Y6800
X66116Y10400
X52941Y11786
X51316Y14935
X54567Y13310
X51417Y16459
X52941Y10973
X49487Y10058
X53043Y13386
X50096Y15646
X60866Y18271
X63050Y19761
X54465Y11786
X49284Y10566
X55416Y12600
X56033Y18217
X57216Y18800
X55416Y11800
X56091Y8636
X45539Y7746
X48616Y20800
X55416Y8600
X64316Y3900
X64316Y11100
X66616Y10200
X64974Y4400
X64416Y4900
X63616Y17200
X53345Y7752
X53144Y9423
X53043Y14224
X54216Y7400
X53830Y13411
X53994Y10200
X54616Y9400
X54616Y12600
X60216Y9400
X60537Y7112
X62553Y14337
X61834Y3251
X62995Y15179
X62492Y3251
X61210Y11900
X60818Y3251
X62137Y13520
X61476Y3861
X61808Y12800
X63416Y16200
X59416Y9400
X55216Y7200
X55380Y7722
X51416Y11000
X51724Y4000
X51188Y2800
X51081Y7000
X51416Y11800
X51285Y9400
X57016Y10200
X56616Y7200
X52156Y9400
X52230Y11074
X62416Y13883
X52130Y2778
X52216Y8700
X52688Y3150
X52230Y10160
X55416Y11000
X55888Y7678
X53559Y4129
X50660Y4550
X50616Y12600
X49917Y13411
X49917Y4671
X52216Y11800
X47616Y3000
X53616Y18925
X48216Y3406
X54616Y18400
X62774Y14758
X63216Y15600
X60188Y2845
X60227Y8710
X59725Y3311
X59961Y7223
X58616Y8600
X57616Y3600
X58216Y7600
X57266Y3892
X53061Y18800
X53016Y17400
X51416Y17400
X50329Y14398
X53016Y16600
X48845Y3048
X49502Y3471
X50350Y16916
X50147Y15138
X49893Y2896
X50374Y16104
X51416Y13400
X63416Y17900
X56116Y21500
X77123Y15800
X79523Y16600
X81123Y15000
X78723Y13400
X82723Y12578
X73022Y17721
X73923Y14178
X76323Y11800
X77923Y10200
X79523Y11000
X82914Y7778
X76323Y9378
X75523Y10200
X87115Y13454
X75523Y19600
X83777Y17670
X73123Y7778
X69123Y3200
X76773Y3250
X78273Y3200
X79023Y3600
X79773Y3200
X86273Y3200
X87523Y3327
X83923Y17000
X72323Y10400
X78923Y19400
X69523Y4600
X76323Y20400
X72323Y6300
X87573Y17150
X87516Y19440
X87789Y11106
X84533Y8262
X67923Y6800
X67923Y9200
X88859Y14418
X75923Y4800
X71823Y20200
X77923Y15800
X76323Y15800
X74888Y13400
X76323Y11000
X77923Y9400
X80323Y10200
X81123Y11778
X81123Y14200
X81123Y12600
X79523Y13400
X78723Y11800
X77923Y13400
X75523Y12600
X87115Y11554
X72323Y12800
X73123Y19600
X76523Y19400
X68123Y5400
X84723Y18600
X72323Y9500
X79123Y20400
X87697Y17712
X85295Y10290
X89113Y7062
X87947Y6138
X87947Y2948
X88189Y13592
X67923Y12200
X69223Y3750
X67923Y8200
X76066Y7100
X79523Y15800
X88523Y6800
X88623Y10400
X75448Y11786
X73823Y14935
X77074Y13310
X73924Y16459
X75448Y10973
X71994Y10058
X75550Y13386
X72603Y15646
X83373Y18271
X85557Y19761
X76972Y11786
X71791Y10566
X77923Y12600
X78540Y18217
X79723Y18800
X77923Y11800
X78598Y8636
X68046Y7746
X71123Y20800
X77923Y8600
X86823Y3900
X86823Y11100
X89123Y10200
X87481Y4400
X86923Y4900
X86123Y17200
X75852Y7752
X75651Y9423
X75550Y14224
X76723Y7400
X76337Y13411
X76501Y10200
X77123Y9400
X77123Y12600
X82723Y9400
X83044Y7112
X85060Y14337
X84341Y3251
X85502Y15179
X84999Y3251
X83717Y11900
X83325Y3251
X84644Y13520
X83983Y3861
X84315Y12800
X85923Y16200
X81923Y9400
X77723Y7200
X77887Y7722
X73923Y11000
X74231Y4000
X73695Y2800
X73588Y7000
X73923Y11800
X73792Y9400
X79523Y10200
X79123Y7200
X74663Y9400
X74737Y11074
X84923Y13883
X74637Y2778
X74723Y8700
X75195Y3150
X74737Y10160
X77923Y11000
X78395Y7678
X76066Y4129
X73167Y4550
X73123Y12600
X72424Y13411
X72424Y4671
X74723Y11800
X70123Y3000
X76123Y18925
X70723Y3406
X77123Y18400
X85281Y14758
X85723Y15600
X82695Y2845
X82734Y8710
X82232Y3311
X82468Y7223
X81123Y8600
X80123Y3600
X80723Y7600
X79773Y3892
X75568Y18800
X75523Y17400
X73923Y17400
X72836Y14398
X75523Y16600
X71352Y3048
X72009Y3471
X72857Y16916
X72654Y15138
X72400Y2896
X72881Y16104
X73923Y13400
X85923Y17900
X78623Y21500
X99633Y15800
X102033Y16600
X103633Y15000
X101233Y13400
X105233Y12578
X95531Y17721
X96433Y14178
X98833Y11800
X100433Y10200
X102033Y11000
X105423Y7778
X98833Y9378
X98033Y10200
X109625Y13454
X98033Y19600
X106287Y17670
X95633Y7778
X91633Y3200
X99283Y3250
X100783Y3200
X101533Y3600
X102283Y3200
X108783Y3200
X110033Y3327
X106433Y17000
X94833Y10400
X101433Y19400
X92033Y4600
X98833Y20400
X94833Y6300
X110083Y17150
X110026Y19440
X110299Y11106
X107043Y8262
X90433Y6800
X90433Y9200
X111369Y14418
X98433Y4800
X94333Y20200
X100433Y15800
X98833Y15800
X97398Y13400
X98833Y11000
X100433Y9400
X102833Y10200
X103633Y11778
X103633Y14200
X103633Y12600
X102033Y13400
X101233Y11800
X100433Y13400
X98033Y12600
X109625Y11554
X94833Y12800
X95633Y19600
X99033Y19400
X90633Y5400
X107233Y18600
X94833Y9500
X101633Y20400
X110207Y17712
X107805Y10290
X111623Y7062
X110457Y6138
X110457Y2948
X110699Y13592
X90433Y12200
X91733Y3750
X90433Y8200
X98576Y7100
X102033Y15800
X111033Y6800
X111133Y10400
X97958Y11786
X96332Y14935
X99583Y13310
X96434Y16459
X97958Y10973
X94503Y10058
X98059Y13386
X95113Y15646
X105882Y18271
X108067Y19761
X99482Y11786
X94300Y10566
X100433Y12600
X101049Y18217
X102233Y18800
X100433Y11800
X101107Y8636
X90555Y7746
X93633Y20800
X100433Y8600
X109333Y3900
X109333Y11100
X111633Y10200
X109990Y4400
X109433Y4900
X108633Y17200
X98361Y7752
X98161Y9423
X98059Y14224
X99233Y7400
X98847Y13411
X99011Y10200
X99633Y9400
X99633Y12600
X105233Y9400
X105554Y7112
X107570Y14337
X106851Y3251
X108012Y15179
X107508Y3251
X106226Y11900
X105835Y3251
X107153Y13520
X106492Y3861
X106825Y12800
X108433Y16200
X104433Y9400
X100233Y7200
X100396Y7722
X96433Y11000
X96740Y4000
X96204Y2800
X96098Y7000
X96433Y11800
X96301Y9400
X102033Y10200
X101633Y7200
X97172Y9400
X97246Y11074
X107433Y13883
X97147Y2778
X97233Y8700
X97704Y3150
X97246Y10160
X100433Y11000
X100904Y7678
X98576Y4129
X95677Y4550
X95633Y12600
X94933Y13411
X94933Y4671
X97233Y11800
X92633Y3000
X98633Y18925
X93233Y3406
X99633Y18400
X107791Y14758
X108233Y15600
X105204Y2845
X105243Y8710
X104741Y3311
X104978Y7223
X103633Y8600
X102633Y3600
X103233Y7600
X102283Y3892
X98077Y18800
X98033Y17400
X96433Y17400
X95345Y14398
X98033Y16600
X93861Y3048
X94519Y3471
X95367Y16916
X95164Y15138
X94910Y2896
X95391Y16104
X96433Y13400
X108433Y17900
X101133Y21500
X12399Y54050
X9999Y53250
X8399Y54850
X10799Y56450
X6799Y57272
X16501Y52129
X15599Y55672
X13199Y58050
X11599Y59650
X9999Y58850
X6609Y62072
X13199Y60472
X13999Y59650
X2407Y56396
X13999Y50250
X5745Y52180
X16399Y62072
X20399Y66650
X12749Y66600
X11249Y66650
X10499Y66250
X9749Y66650
X3249Y66650
X1999Y66523
X5599Y52850
X17199Y59450
X10599Y50450
X19999Y65250
X13199Y49450
X17199Y63550
X1949Y52700
X2006Y50410
X1733Y58744
X4989Y61588
X21599Y63050
X21599Y60650
X663Y55432
X13599Y65050
X17699Y49650
X11599Y54050
X13199Y54050
X14634Y56450
X13199Y58850
X11599Y60450
X9199Y59650
X8399Y58072
X8399Y55650
X8399Y57250
X9999Y56450
X10799Y58050
X11599Y56450
X13999Y57250
X2407Y58296
X17199Y57050
X16399Y50250
X12999Y50450
X21399Y64450
X4799Y51250
X17199Y60350
X10399Y49450
X1825Y52138
X4227Y59560
X409Y62788
X1575Y63712
X1575Y66902
X1333Y56258
X21599Y57650
X20299Y66100
X21599Y61650
X13456Y62750
X9999Y54050
X999Y63050
X899Y59450
X14074Y58064
X15700Y54915
X12449Y56540
X15598Y53391
X14074Y58877
X17529Y59792
X13973Y56464
X16919Y54204
X6149Y51579
X3965Y50089
X12550Y58064
X17732Y59284
X11599Y57250
X10982Y51633
X9799Y51050
X11599Y58050
X10925Y61214
X21477Y62104
X18399Y49050
X11599Y61250
X2699Y65950
X2699Y58750
X399Y59650
X2042Y65450
X2599Y64950
X3399Y52650
X13670Y62098
X13871Y60427
X13973Y55626
X12799Y62450
X13185Y56439
X13021Y59650
X12399Y60450
X12399Y57250
X6799Y60450
X6478Y62738
X4462Y55513
X5181Y66599
X4020Y54671
X4524Y66599
X5805Y57950
X6197Y66599
X4879Y56330
X5540Y65989
X5207Y57050
X3599Y53650
X7599Y60450
X11799Y62650
X11636Y62128
X15599Y58850
X15291Y65850
X15828Y67050
X15934Y62850
X15599Y58050
X15731Y60450
X9999Y59650
X10399Y62650
X14859Y60450
X14785Y58776
X4599Y55967
X14885Y67072
X14799Y61150
X14328Y66700
X14785Y59690
X11599Y58850
X11128Y62172
X13456Y65721
X16355Y65300
X16399Y57250
X17098Y56439
X17098Y65179
X14799Y58050
X19399Y66850
X13399Y50925
X18799Y66444
X12399Y51450
X4241Y55092
X3799Y54250
X6828Y67005
X6789Y61140
X7291Y66539
X7054Y62627
X8399Y61250
X9399Y66250
X8799Y62250
X9749Y65958
X13955Y51050
X13999Y52450
X15599Y52450
X16687Y55452
X13999Y53250
X18170Y66802
X17513Y66379
X16665Y52934
X16868Y54712
X17122Y66954
X16641Y53746
X15599Y56450
X3599Y51950
X10899Y48350
X34908Y54050
X32508Y53250
X30908Y54850
X33308Y56450
X29308Y57272
X39010Y52129
X38108Y55672
X35708Y58050
X34108Y59650
X32508Y58850
X29118Y62072
X35708Y60472
X36508Y59650
X24916Y56396
X36508Y50250
X28254Y52180
X38908Y62072
X42908Y66650
X35258Y66600
X33758Y66650
X33008Y66250
X32258Y66650
X25758Y66650
X24508Y66523
X28108Y52850
X39708Y59450
X33108Y50450
X42508Y65250
X35708Y49450
X39708Y63550
X24458Y52700
X24515Y50410
X24242Y58744
X27498Y61588
X44108Y63050
X44108Y60650
X23172Y55432
X36108Y65050
X40208Y49650
X34108Y54050
X35708Y54050
X37143Y56450
X35708Y58850
X34108Y60450
X31708Y59650
X30908Y58072
X30908Y55650
X30908Y57250
X32508Y56450
X33308Y58050
X34108Y56450
X36508Y57250
X24916Y58296
X39708Y57050
X38908Y50250
X35508Y50450
X43908Y64450
X27308Y51250
X39708Y60350
X32908Y49450
X24334Y52138
X26736Y59560
X22918Y62788
X24084Y63712
X24084Y66902
X23842Y56258
X44108Y57650
X42808Y66100
X44108Y61650
X35966Y62750
X32508Y54050
X23508Y63050
X23408Y59450
X36584Y58064
X38209Y54915
X34958Y56540
X38108Y53391
X36584Y58877
X40038Y59792
X36482Y56464
X39428Y54204
X28659Y51579
X26474Y50089
X35060Y58064
X40241Y59284
X34108Y57250
X33492Y51633
X32308Y51050
X34108Y58050
X33434Y61214
X43986Y62104
X40908Y49050
X34108Y61250
X25208Y65950
X25208Y58750
X22908Y59650
X24551Y65450
X25108Y64950
X25908Y52650
X36180Y62098
X36380Y60427
X36482Y55626
X35308Y62450
X35695Y56439
X35531Y59650
X34908Y60450
X34908Y57250
X29308Y60450
X28987Y62738
X26971Y55513
X27690Y66599
X26529Y54671
X27033Y66599
X28315Y57950
X28706Y66599
X27388Y56330
X28049Y65989
X27717Y57050
X26108Y53650
X30108Y60450
X34308Y62650
X34145Y62128
X38108Y58850
X37801Y65850
X38337Y67050
X38443Y62850
X38108Y58050
X38240Y60450
X32508Y59650
X32908Y62650
X37369Y60450
X37295Y58776
X27108Y55967
X37395Y67072
X37308Y61150
X36837Y66700
X37295Y59690
X34108Y58850
X33637Y62172
X35966Y65721
X38865Y65300
X38908Y57250
X39608Y56439
X39608Y65179
X37308Y58050
X41908Y66850
X35908Y50925
X41308Y66444
X34908Y51450
X26750Y55092
X26308Y54250
X29337Y67005
X29298Y61140
X29800Y66539
X29563Y62627
X30908Y61250
X31908Y66250
X31308Y62250
X32258Y65958
X36464Y51050
X36508Y52450
X38108Y52450
X39196Y55452
X36508Y53250
X40680Y66802
X40023Y66379
X39174Y52934
X39378Y54712
X39632Y66954
X39151Y53746
X38108Y56450
X26108Y51950
X33408Y48350
X57415Y54050
X55015Y53250
X53415Y54850
X55815Y56450
X51815Y57272
X61517Y52129
X60615Y55672
X58215Y58050
X56615Y59650
X55015Y58850
X51625Y62072
X58215Y60472
X59015Y59650
X47423Y56396
X59015Y50250
X50761Y52180
X61415Y62072
X65415Y66650
X57765Y66600
X56265Y66650
X55515Y66250
X54765Y66650
X48265Y66650
X47015Y66523
X50615Y52850
X62215Y59450
X55615Y50450
X65015Y65250
X58215Y49450
X62215Y63550
X46965Y52700
X47022Y50410
X46749Y58744
X50005Y61588
X66615Y63050
X66615Y60650
X45679Y55432
X58615Y65050
X62715Y49650
X56615Y54050
X58215Y54050
X59650Y56450
X58215Y58850
X56615Y60450
X54215Y59650
X53415Y58072
X53415Y55650
X53415Y57250
X55015Y56450
X55815Y58050
X56615Y56450
X59015Y57250
X47423Y58296
X62215Y57050
X61415Y50250
X58015Y50450
X66415Y64450
X49815Y51250
X62215Y60350
X55415Y49450
X46841Y52138
X49243Y59560
X45425Y62788
X46591Y63712
X46591Y66902
X46349Y56258
X66615Y57650
X65315Y66100
X66615Y61650
X58473Y62750
X55015Y54050
X46015Y63050
X45915Y59450
X59091Y58064
X60716Y54915
X57465Y56540
X60615Y53391
X59091Y58877
X62545Y59792
X58989Y56464
X61935Y54204
X51166Y51579
X48981Y50089
X57567Y58064
X62748Y59284
X56615Y57250
X55999Y51633
X54815Y51050
X56615Y58050
X55941Y61214
X66493Y62104
X63415Y49050
X56615Y61250
X47715Y65950
X47715Y58750
X45415Y59650
X47058Y65450
X47615Y64950
X48415Y52650
X58687Y62098
X58887Y60427
X58989Y55626
X57815Y62450
X58202Y56439
X58038Y59650
X57415Y60450
X57415Y57250
X51815Y60450
X51494Y62738
X49478Y55513
X50197Y66599
X49036Y54671
X49540Y66599
X50822Y57950
X51213Y66599
X49895Y56330
X50556Y65989
X50224Y57050
X48615Y53650
X52615Y60450
X56815Y62650
X56652Y62128
X60615Y58850
X60308Y65850
X60844Y67050
X60950Y62850
X60615Y58050
X60747Y60450
X55015Y59650
X55415Y62650
X59876Y60450
X59802Y58776
X49615Y55967
X59902Y67072
X59815Y61150
X59344Y66700
X59802Y59690
X56615Y58850
X56144Y62172
X58473Y65721
X61371Y65300
X61415Y57250
X62115Y56439
X62115Y65179
X59815Y58050
X64415Y66850
X58415Y50925
X63815Y66444
X57415Y51450
X49257Y55092
X48815Y54250
X51844Y67005
X51805Y61140
X52307Y66539
X52070Y62627
X53415Y61250
X54415Y66250
X53815Y62250
X54765Y65958
X58971Y51050
X59015Y52450
X60615Y52450
X61703Y55452
X59015Y53250
X63187Y66802
X62530Y66379
X61681Y52934
X61885Y54712
X62139Y66954
X61658Y53746
X60615Y56450
X48615Y51950
X55915Y48350
X79925Y54050
X77525Y53250
X75925Y54850
X78325Y56450
X74325Y57272
X84026Y52129
X83125Y55672
X80725Y58050
X79125Y59650
X77525Y58850
X74134Y62072
X9600Y15800
X81525Y59650
X69933Y56396
X81525Y50250
X73271Y52180
X83925Y62072
X87925Y66650
X80275Y66600
X78775Y66650
X78025Y66250
X77275Y66650
X70775Y66650
X69525Y66523
X73125Y52850
X84725Y59450
X78125Y50450
X87525Y65250
X80725Y49450
X84725Y63550
X69475Y52700
X69532Y50410
X69259Y58744
X72515Y61588
X89125Y63050
X89125Y60650
X68189Y55432
X81125Y65050
X85225Y49650
X79125Y54050
X80725Y54050
X82160Y56450
X80725Y58850
X79125Y60450
X76725Y59650
X75925Y58072
X75925Y55650
X75925Y57250
X77525Y56450
X78325Y58050
X79125Y56450
X81525Y57250
X69933Y58296
X84725Y57050
X83925Y50250
X80525Y50450
X88925Y64450
X72325Y51250
X84725Y60350
X77925Y49450
X69351Y52138
X71753Y59560
X67935Y62788
X69101Y63712
X69101Y66902
X68859Y56258
X89125Y57650
X87825Y66100
X89125Y61650
X80982Y62750
X77525Y54050
X68525Y63050
X68425Y59450
X81600Y58064
X83226Y54915
X79974Y56540
X83124Y53391
X81600Y58877
X85054Y59792
X81498Y56464
X84445Y54204
X73675Y51579
X71491Y50089
X80076Y58064
X85258Y59284
X79125Y57250
X78508Y51633
X77325Y51050
X79125Y58050
X78450Y61214
X89003Y62104
X85925Y49050
X79125Y61250
X70225Y65950
X70225Y58750
X67925Y59650
X69568Y65450
X70125Y64950
X70925Y52650
X81196Y62098
X81397Y60427
X81498Y55626
X80325Y62450
X80711Y56439
X80547Y59650
X79925Y60450
X79925Y57250
X74325Y60450
X74004Y62738
X71988Y55513
X72707Y66599
X71546Y54671
X72050Y66599
X73331Y57950
X73723Y66599
X72404Y56330
X73066Y65989
X72733Y57050
X71125Y53650
X75125Y60450
X79325Y62650
X79162Y62128
X83125Y58850
X82817Y65850
X83353Y67050
X83460Y62850
X83125Y58050
X83257Y60450
X77525Y59650
X77925Y62650
X82385Y60450
X82311Y58776
X72125Y55967
X82411Y67072
X82325Y61150
X81853Y66700
X82311Y59690
X79125Y58850
X78653Y62172
X80982Y65721
X83881Y65300
X83925Y57250
X84624Y56439
X84624Y65179
X82325Y58050
X86925Y66850
X80925Y50925
X86325Y66444
X79925Y51450
X71767Y55092
X71325Y54250
X74353Y67005
X74315Y61140
X74817Y66539
X74580Y62627
X75925Y61250
X76925Y66250
X76325Y62250
X77275Y65958
X81480Y51050
X81525Y52450
X83125Y52450
X84212Y55452
X81525Y53250
X85696Y66802
X85039Y66379
X84191Y52934
X84394Y54712
X84648Y66954
X84167Y53746
X83125Y56450
X71125Y51950
X78425Y48350
X102432Y54050
X100032Y53250
X98432Y54850
X100832Y56450
X96832Y57272
X106533Y52129
X105632Y55672
X103232Y58050
X101632Y59650
X100032Y58850
X96641Y62072
X103232Y60472
X104032Y59650
X92440Y56396
X104032Y50250
X95778Y52180
X106432Y62072
X110432Y66650
X102782Y66600
X101282Y66650
X100532Y66250
X99782Y66650
X93282Y66650
X92032Y66523
X95632Y52850
X107232Y59450
X100632Y50450
X110032Y65250
X103232Y49450
X107232Y63550
X91982Y52700
X92039Y50410
X91766Y58744
X95022Y61588
X111632Y63050
X111632Y60650
X90696Y55432
X103632Y65050
X107732Y49650
X101632Y54050
X103232Y54050
X104667Y56450
X103232Y58850
X101632Y60450
X99232Y59650
X98432Y58072
X98432Y55650
X98432Y57250
X100032Y56450
X100832Y58050
X101632Y56450
X104032Y57250
X92440Y58296
X107232Y57050
X106432Y50250
X103032Y50450
X111432Y64450
X94832Y51250
X107232Y60350
X100432Y49450
X91858Y52138
X94260Y59560
X90442Y62788
X91608Y63712
X91608Y66902
X91366Y56258
X111632Y57650
X110332Y66100
X111632Y61650
X103489Y62750
X80725Y60472
X91032Y63050
X90932Y59450
X104107Y58064
X105733Y54915
X102481Y56540
X105631Y53391
X104107Y58877
X107561Y59792
X104005Y56464
X106952Y54204
X96182Y51579
X93998Y50089
X102583Y58064
X107765Y59284
X101632Y57250
X101015Y51633
X99832Y51050
X101632Y58050
X100957Y61214
X111510Y62104
X108432Y49050
X101632Y61250
X92732Y65950
X92732Y58750
X90432Y59650
X92075Y65450
X92632Y64950
X93432Y52650
X103703Y62098
X103904Y60427
X104005Y55626
X102832Y62450
X103218Y56439
X103054Y59650
X102432Y60450
X102432Y57250
X96832Y60450
X96511Y62738
X94495Y55513
X95214Y66599
X94053Y54671
X94557Y66599
X95838Y57950
X96230Y66599
X94911Y56330
X95573Y65989
X95240Y57050
X93632Y53650
X97632Y60450
X101832Y62650
X101669Y62128
X105632Y58850
X105324Y65850
X105860Y67050
X105967Y62850
X105632Y58050
X105764Y60450
X100032Y59650
X100432Y62650
X104892Y60450
X104818Y58776
X94632Y55967
X104918Y67072
X104832Y61150
X104360Y66700
X104818Y59690
X101632Y58850
X101160Y62172
X103489Y65721
X106388Y65300
X106432Y57250
X107131Y56439
X107131Y65179
X104832Y58050
X109432Y66850
X103432Y50925
X108832Y66444
X102432Y51450
X94274Y55092
X93832Y54250
X96860Y67005
X96821Y61140
X97324Y66539
X97087Y62627
X98432Y61250
X99432Y66250
X98832Y62250
X99782Y65958
X103987Y51050
X104032Y52450
X105632Y52450
X106719Y55452
X104032Y53250
X108203Y66802
X107546Y66379
X106698Y52934
X106901Y54712
X107155Y66954
X106674Y53746
X105632Y56450
X93632Y51950
X100932Y48350
X12900Y21000
X17100Y21000
X15000Y19700
X12000Y16600
X13600Y15000
X11200Y13400
X15200Y12578
X5498Y17721
X6400Y14178
X8800Y11800
X10400Y10200
X12000Y11000
X15390Y7778
X35407Y21000
X39607Y21000
X37507Y19700
X8800Y9378
X8000Y10200
X19592Y13454
X8000Y19600
X16254Y17670
X5600Y7778
X1600Y3200
X9250Y3250
X10750Y3200
X11500Y3600
X57916Y21000
X62116Y21000
X60016Y19700
X12250Y3200
X18750Y3200
X20000Y3327
X16400Y17000
X4800Y10400
X11400Y19400
X2000Y4600
X8800Y20400
X4800Y6300
X20050Y17150
X80423Y21000
X84623Y21000
X82523Y19700
X19993Y19440
X20266Y11106
X17010Y8262
X400Y6800
X400Y9200
X21336Y14418
X8400Y4800
X4300Y20200
X10400Y15800
X8800Y15800
X102933Y21000
X107133Y21000
X105033Y19700
X7365Y13400
X8800Y11000
X10400Y9400
X12800Y10200
X13600Y11778
X13600Y14200
X13600Y12600
X12000Y13400
X11200Y11800
X10400Y13400
X9099Y48850
X4899Y48850
X6999Y50150
X8000Y12600
X19592Y11554
X4800Y12800
X5600Y19600
X9000Y19400
X600Y5400
X17200Y18600
X4800Y9500
X11600Y20400
X20174Y17712
X31608Y48850
X27408Y48850
X29508Y50150
X17772Y10290
X21590Y7062
X20424Y6138
X20424Y2948
X20666Y13592
X400Y12200
X1700Y3750
X400Y8200
X8543Y7100
X12000Y15800
X54115Y48850
X49915Y48850
X52015Y50150
X21000Y6800
X21100Y10400
X7925Y11786
X6299Y14935
X9550Y13310
X6401Y16459
X7925Y10973
X4470Y10058
X8026Y13386
X5080Y15646
X76625Y48850
X72425Y48850
X74525Y50150
X15850Y18271
X18034Y19761
X9449Y11786
X4267Y10566
X10400Y12600
X11017Y18217
X12200Y18800
X10400Y11800
X11074Y8636
X522Y7746
X99132Y48850
X94932Y48850
X97032Y50150
X3600Y20800
X10400Y8600
X19300Y3900
X19300Y11100
X21600Y10200
X19957Y4400
X19400Y4900
X18600Y17200
X8329Y7752
X100032Y54050
M30