M48
;GenerationSoftware,Autodesk,EAGLE,9.5.2*%
;CreationDate,2021-05-07T20:22:09Z*%
FMAT,2
ICI,OFF
METRIC,TZ,000.000
T2C0.200
T1C0.508
%
G90
M71
T1
X176992Y49172
X1293Y19408
X1293Y18138
X1293Y16868
X1293Y15598
X1293Y20678
X2563Y19408
X2563Y18138
X2563Y16868
X2563Y15598
X2563Y20678
X23800Y19408
X23800Y18138
X23800Y16868
X23800Y15598
X23800Y20678
X25070Y19408
X25070Y18138
X25070Y16868
X25070Y15598
X25070Y20678
X46309Y19408
X46309Y18138
X46309Y16868
X46309Y15598
X46309Y20678
X47579Y19408
X47579Y18138
X47579Y16868
X47579Y15598
X47579Y20678
X68816Y19408
X68816Y18138
X68816Y16868
X68816Y15598
X68816Y20678
X70086Y19408
X70086Y18138
X70086Y16868
X70086Y15598
X70086Y20678
X91326Y19408
X91326Y18138
X91326Y16868
X91326Y15598
X91326Y20678
X92596Y19408
X92596Y18138
X92596Y16868
X92596Y15598
X92596Y20678
X113833Y19408
X113833Y18138
X113833Y16868
X113833Y15598
X113833Y20678
X115103Y19408
X115103Y18138
X115103Y16868
X115103Y15598
X115103Y20678
X136342Y19408
X136342Y18138
X136342Y16868
X136342Y15598
X136342Y20678
X137612Y19408
X137612Y18138
X137612Y16868
X137612Y15598
X137612Y20678
X158849Y19408
X158849Y18138
X158849Y16868
X158849Y15598
X158849Y20678
X160119Y19408
X160119Y18138
X160119Y16868
X160119Y15598
X160119Y20678
X20706Y50442
X20706Y51712
X20706Y52982
X20706Y54252
X20706Y49172
X19436Y50442
X19436Y51712
X19436Y52982
X19436Y54252
X19436Y49172
X43215Y50442
X43215Y51712
X43215Y52982
X43215Y54252
X43215Y49172
X41945Y50442
X41945Y51712
X41945Y52982
X41945Y54252
X41945Y49172
X65722Y50442
X65722Y51712
X65722Y52982
X65722Y54252
X65722Y49172
X64452Y50442
X64452Y51712
X64452Y52982
X64452Y54252
X64452Y49172
X88232Y50442
X88232Y51712
X88232Y52982
X88232Y54252
X88232Y49172
X86962Y50442
X86962Y51712
X86962Y52982
X86962Y54252
X86962Y49172
X110739Y50442
X110739Y51712
X110739Y52982
X110739Y54252
X110739Y49172
X109469Y50442
X109469Y51712
X109469Y52982
X109469Y54252
X109469Y49172
X133248Y50442
X133248Y51712
X133248Y52982
X133248Y54252
X133248Y49172
X131978Y50442
X131978Y51712
X131978Y52982
X131978Y54252
X131978Y49172
X155755Y50442
X155755Y51712
X155755Y52982
X155755Y54252
X155755Y49172
X154485Y50442
X154485Y51712
X154485Y52982
X154485Y54252
X154485Y49172
X178262Y50442
X178262Y51712
X178262Y52982
X178262Y54252
X178262Y49172
X176992Y50442
X176992Y51712
X176992Y52982
X176992Y54252
T2
X12250Y3892
X8044Y18800
X8000Y17400
X6400Y17400
X5312Y14398
X8000Y16600
X3829Y3048
X4486Y3471
X5334Y16916
X5131Y15138
X4877Y2896
X5358Y16104
X6400Y13400
X18400Y17900
X11100Y21500
X32107Y15800
X34507Y16600
X36107Y15000
X33707Y13400
X37707Y12578
X28005Y17721
X28907Y14178
X31307Y11800
X32907Y10200
X34507Y11000
X38050Y7702
X31307Y9378
X30507Y10200
X42099Y13454
X30507Y19600
X38863Y17746
X28107Y7778
X24107Y3200
X31757Y3250
X33257Y3200
X34007Y3600
X34757Y3200
X41257Y3200
X42507Y3327
X38907Y17000
X27307Y10400
X33907Y19400
X24507Y4600
X31307Y20400
X27307Y6300
X42176Y17150
X42500Y19440
X42925Y11131
X39466Y8262
X22907Y6800
X22907Y9200
X43843Y14418
X30907Y4800
X27061Y20784
X32907Y15800
X31307Y15800
X29872Y13400
X31307Y11000
X32907Y9400
X35307Y10200
X36107Y11778
X36107Y14200
X36107Y12600
X34507Y13400
X33707Y11800
X32907Y13400
X30507Y12600
X42099Y11935
X27307Y12800
X28107Y19600
X31507Y19400
X23107Y5400
X39707Y18600
X27307Y9500
X34107Y20400
X43189Y17458
X40279Y10290
X44097Y7062
X42931Y6138
X42931Y2948
X43173Y13592
X22907Y12200
X24207Y3750
X22907Y8200
X31050Y7100
X34507Y15800
X41754Y5251
X43607Y10400
X30432Y11786
X28806Y14935
X32057Y13310
X28908Y16459
X30432Y10973
X26977Y10058
X30533Y13386
X27587Y15646
X40287Y10871
X42395Y11278
X38357Y18271
X40541Y19761
X31956Y11786
X26774Y10566
X32907Y12600
X33524Y18217
X34707Y18800
X32907Y11800
X33581Y8636
X23029Y7746
X26107Y20800
X32907Y8600
X41807Y3900
X41807Y11329
X44107Y10200
X42464Y5772
X41735Y6096
X41107Y17200
X30836Y7752
X30635Y9423
X30533Y14224
X31707Y7400
X31321Y13411
X31485Y10200
X32107Y9400
X32107Y12600
X38469Y9425
X38028Y7112
X40044Y14337
X39325Y3251
X40486Y15179
X39982Y3251
X38574Y11824
X38309Y3251
X39627Y13520
X38966Y3861
X39299Y12800
X40907Y16200
X36907Y9400
X32707Y7200
X32870Y7722
X28907Y11000
X29214Y4000
X28678Y2800
X28572Y7000
X28907Y11800
X28775Y9400
X34507Y10200
X34107Y7200
X29647Y9400
X29721Y11074
X39907Y13883
X29621Y2778
X29707Y8700
X30178Y3150
X29721Y10160
X32907Y11000
X33378Y7678
X31050Y4129
X28151Y4550
X28107Y12600
X27408Y13411
X27408Y4671
X29707Y11800
X25107Y3000
X31107Y18925
X25707Y3406
X32107Y18400
X40265Y14758
X40707Y15600
X37678Y2845
X38378Y6755
X37215Y3311
X37299Y7173
X36107Y8600
X35107Y3600
X35707Y7600
X34757Y3892
X30551Y18800
X30507Y17400
X28907Y17400
X27819Y14398
X30507Y16600
X26336Y3048
X26993Y3471
X27841Y16916
X27638Y15138
X27384Y2896
X27865Y16104
X28907Y13400
X40907Y17900
X33607Y21500
X54616Y15800
X57016Y16600
X58616Y15000
X56216Y13400
X60216Y12578
X50515Y17721
X51416Y14178
X53816Y11800
X55416Y10200
X57016Y11000
X60559Y7702
X53816Y9378
X53016Y10200
X64608Y13454
X53016Y19600
X61372Y17746
X50616Y7778
X46616Y3200
X54266Y3250
X55766Y3200
X56516Y3600
X57266Y3200
X63766Y3200
X65016Y3327
X61416Y17000
X49816Y10400
X56416Y19400
X47016Y4600
X53816Y20400
X49816Y6300
X64685Y17150
X65009Y19440
X65435Y11131
X61976Y8262
X45416Y6800
X45416Y9200
X66352Y14418
X53416Y4800
X49570Y20784
X55416Y15800
X53816Y15800
X52381Y13400
X53816Y11000
X55416Y9400
X57816Y10200
X58616Y11778
X58616Y14200
X58616Y12600
X57016Y13400
X56216Y11800
X55416Y13400
X53016Y12600
X64608Y11935
X49816Y12800
X50616Y19600
X54016Y19400
X45616Y5400
X62216Y18600
X49816Y9500
X56616Y20400
X65698Y17458
X62788Y10290
X66606Y7062
X65440Y6138
X65440Y2948
X65682Y13592
X45416Y12200
X46716Y3750
X45416Y8200
X53559Y7100
X57016Y15800
X64264Y5251
X66116Y10400
X52941Y11786
X51316Y14935
X54567Y13310
X51417Y16459
X52941Y10973
X49487Y10058
X53043Y13386
X50096Y15646
X62796Y10871
X64905Y11278
X60866Y18271
X63050Y19761
X54465Y11786
X49284Y10566
X55416Y12600
X56033Y18217
X57216Y18800
X55416Y11800
X56091Y8636
X45539Y7746
X48616Y20800
X55416Y8600
X64316Y3900
X64316Y11329
X66616Y10200
X64974Y5772
X64244Y6096
X63616Y17200
X53345Y7752
X53144Y9423
X53043Y14224
X54216Y7400
X53830Y13411
X53994Y10200
X54616Y9400
X54616Y12600
X60978Y9425
X60537Y7112
X62553Y14337
X61834Y3251
X62995Y15179
X62492Y3251
X61083Y11824
X60818Y3251
X62137Y13520
X61476Y3861
X61808Y12800
X63416Y16200
X59416Y9400
X55216Y7200
X55380Y7722
X51416Y11000
X51724Y4000
X51188Y2800
X51081Y7000
X51416Y11800
X51285Y9400
X57016Y10200
X56616Y7200
X52156Y9400
X52230Y11074
X62416Y13883
X52130Y2778
X52216Y8700
X52688Y3150
X52230Y10160
X55416Y11000
X55888Y7678
X53559Y4129
X50660Y4550
X50616Y12600
X49917Y13411
X49917Y4671
X52216Y11800
X47616Y3000
X53616Y18925
X48216Y3406
X54616Y18400
X62774Y14758
X63216Y15600
X60188Y2845
X60887Y6755
X59725Y3311
X59809Y7173
X58616Y8600
X57616Y3600
X58216Y7600
X57266Y3892
X53061Y18800
X53016Y17400
X51416Y17400
X50329Y14398
X53016Y16600
X48845Y3048
X49502Y3471
X50350Y16916
X50147Y15138
X49893Y2896
X50374Y16104
X51416Y13400
X63416Y17900
X56116Y21500
X77123Y15800
X79523Y16600
X81123Y15000
X78723Y13400
X82723Y12578
X73022Y17721
X73923Y14178
X76323Y11800
X77923Y10200
X79523Y11000
X83066Y7702
X76323Y9378
X75523Y10200
X87115Y13454
X75523Y19600
X83879Y17746
X73123Y7778
X69123Y3200
X76773Y3250
X78273Y3200
X79023Y3600
X79773Y3200
X86273Y3200
X87523Y3327
X83923Y17000
X72323Y10400
X78923Y19400
X69523Y4600
X76323Y20400
X72323Y6300
X87192Y17150
X87516Y19440
X87942Y11131
X84483Y8262
X67923Y6800
X67923Y9200
X88859Y14418
X75923Y4800
X72077Y20784
X77923Y15800
X76323Y15800
X74888Y13400
X76323Y11000
X77923Y9400
X80323Y10200
X81123Y11778
X81123Y14200
X81123Y12600
X79523Y13400
X78723Y11800
X77923Y13400
X75523Y12600
X87115Y11935
X72323Y12800
X73123Y19600
X76523Y19400
X68123Y5400
X84723Y18600
X72323Y9500
X79123Y20400
X88205Y17458
X85295Y10290
X89113Y7062
X87947Y6138
X87947Y2948
X88189Y13592
X67923Y12200
X69223Y3750
X67923Y8200
X76066Y7100
X79523Y15800
X86771Y5251
X88623Y10400
X75448Y11786
X73823Y14935
X77074Y13310
X73924Y16459
X75448Y10973
X71994Y10058
X75550Y13386
X72603Y15646
X85303Y10871
X87412Y11278
X83373Y18271
X85557Y19761
X76972Y11786
X71791Y10566
X77923Y12600
X78540Y18217
X79723Y18800
X77923Y11800
X78598Y8636
X68046Y7746
X71123Y20800
X77923Y8600
X86823Y3900
X86823Y11329
X89123Y10200
X87481Y5772
X86751Y6096
X86123Y17200
X75852Y7752
X75651Y9423
X75550Y14224
X76723Y7400
X76337Y13411
X76501Y10200
X77123Y9400
X77123Y12600
X83485Y9425
X83044Y7112
X85060Y14337
X84341Y3251
X85502Y15179
X84999Y3251
X83590Y11824
X83325Y3251
X84644Y13520
X83983Y3861
X84315Y12800
X85923Y16200
X81923Y9400
X77723Y7200
X77887Y7722
X73923Y11000
X74231Y4000
X73695Y2800
X73588Y7000
X73923Y11800
X73792Y9400
X79523Y10200
X79123Y7200
X74663Y9400
X74737Y11074
X84923Y13883
X74637Y2778
X74723Y8700
X75195Y3150
X74737Y10160
X77923Y11000
X78395Y7678
X76066Y4129
X73167Y4550
X73123Y12600
X72424Y13411
X72424Y4671
X74723Y11800
X70123Y3000
X76123Y18925
X70723Y3406
X77123Y18400
X85281Y14758
X85723Y15600
X82695Y2845
X83394Y6755
X82232Y3311
X82316Y7173
X81123Y8600
X80123Y3600
X80723Y7600
X79773Y3892
X75568Y18800
X75523Y17400
X73923Y17400
X72836Y14398
X75523Y16600
X71352Y3048
X72009Y3471
X72857Y16916
X72654Y15138
X72400Y2896
X72881Y16104
X73923Y13400
X85923Y17900
X78623Y21500
X99633Y15800
X102033Y16600
X103633Y15000
X101233Y13400
X105233Y12578
X95531Y17721
X96433Y14178
X98833Y11800
X100433Y10200
X102033Y11000
X105576Y7702
X98833Y9378
X98033Y10200
X109625Y13454
X98033Y19600
X106388Y17746
X95633Y7778
X91633Y3200
X99283Y3250
X100783Y3200
X101533Y3600
X102283Y3200
X108783Y3200
X110033Y3327
X106433Y17000
X94833Y10400
X101433Y19400
X92033Y4600
X98833Y20400
X94833Y6300
X109702Y17150
X110026Y19440
X110451Y11131
X106992Y8262
X90433Y6800
X90433Y9200
X111369Y14418
X98433Y4800
X94587Y20784
X100433Y15800
X98833Y15800
X97398Y13400
X98833Y11000
X100433Y9400
X102833Y10200
X103633Y11778
X103633Y14200
X103633Y12600
X102033Y13400
X101233Y11800
X100433Y13400
X98033Y12600
X109625Y11935
X94833Y12800
X95633Y19600
X99033Y19400
X90633Y5400
X107233Y18600
X94833Y9500
X101633Y20400
X110715Y17458
X107805Y10290
X111623Y7062
X110457Y6138
X110457Y2948
X110699Y13592
X90433Y12200
X91733Y3750
X90433Y8200
X98576Y7100
X102033Y15800
X109280Y5251
X111133Y10400
X97958Y11786
X96332Y14935
X99583Y13310
X96434Y16459
X97958Y10973
X94503Y10058
X98059Y13386
X95113Y15646
X107813Y10871
X109921Y11278
X105882Y18271
X108067Y19761
X99482Y11786
X94300Y10566
X100433Y12600
X101049Y18217
X102233Y18800
X100433Y11800
X101107Y8636
X90555Y7746
X93633Y20800
X100433Y8600
X109333Y3900
X109333Y11329
X111633Y10200
X109990Y5772
X109261Y6096
X108633Y17200
X98361Y7752
X98161Y9423
X98059Y14224
X99233Y7400
X98847Y13411
X99011Y10200
X99633Y9400
X99633Y12600
X105995Y9425
X105554Y7112
X107570Y14337
X106851Y3251
X108012Y15179
X107508Y3251
X106099Y11824
X105835Y3251
X107153Y13520
X106492Y3861
X106825Y12800
X108433Y16200
X104433Y9400
X100233Y7200
X100396Y7722
X96433Y11000
X96740Y4000
X96204Y2800
X96098Y7000
X96433Y11800
X96301Y9400
X102033Y10200
X101633Y7200
X97172Y9400
X97246Y11074
X107433Y13883
X97147Y2778
X97233Y8700
X97704Y3150
X97246Y10160
X100433Y11000
X100904Y7678
X98576Y4129
X95677Y4550
X95633Y12600
X94933Y13411
X94933Y4671
X97233Y11800
X92633Y3000
X98633Y18925
X93233Y3406
X99633Y18400
X107791Y14758
X108233Y15600
X105204Y2845
X105904Y6755
X104741Y3311
X104825Y7173
X103633Y8600
X102633Y3600
X103233Y7600
X102283Y3892
X98077Y18800
X98033Y17400
X96433Y17400
X95345Y14398
X98033Y16600
X93861Y3048
X94519Y3471
X95367Y16916
X95164Y15138
X94910Y2896
X95391Y16104
X96433Y13400
X108433Y17900
X101133Y21500
X122140Y15800
X124540Y16600
X126140Y15000
X123740Y13400
X127740Y12578
X118038Y17721
X118940Y14178
X121340Y11800
X122940Y10200
X124540Y11000
X128083Y7702
X121340Y9378
X120540Y10200
X132132Y13454
X120540Y19600
X128895Y17746
X118140Y7778
X114140Y3200
X121790Y3250
X123290Y3200
X124040Y3600
X124790Y3200
X131290Y3200
X132540Y3327
X128940Y17000
X117340Y10400
X123940Y19400
X114540Y4600
X121340Y20400
X117340Y6300
X132209Y17150
X132533Y19440
X132958Y11131
X129499Y8262
X112940Y6800
X112940Y9200
X133876Y14418
X120940Y4800
X117094Y20784
X122940Y15800
X121340Y15800
X119905Y13400
X121340Y11000
X122940Y9400
X125340Y10200
X126140Y11778
X126140Y14200
X126140Y12600
X124540Y13400
X123740Y11800
X122940Y13400
X120540Y12600
X132132Y11935
X117340Y12800
X118140Y19600
X121540Y19400
X113140Y5400
X129740Y18600
X117340Y9500
X124140Y20400
X133222Y17458
X130312Y10290
X134130Y7062
X132964Y6138
X132964Y2948
X133206Y13592
X112940Y12200
X114240Y3750
X112940Y8200
X121083Y7100
X124540Y15800
X131787Y5251
X133640Y10400
X120465Y11786
X118839Y14935
X122090Y13310
X118941Y16459
X120465Y10973
X117010Y10058
X120566Y13386
X117620Y15646
X130320Y10871
X132428Y11278
X128389Y18271
X130574Y19761
X121989Y11786
X116807Y10566
X122940Y12600
X123556Y18217
X124740Y18800
X122940Y11800
X123614Y8636
X113062Y7746
X116140Y20800
X122940Y8600
X131840Y3900
X131840Y11329
X134140Y10200
X132497Y5772
X131768Y6096
X131140Y17200
X120868Y7752
X120668Y9423
X120566Y14224
X121740Y7400
X121354Y13411
X121518Y10200
X122140Y9400
X122140Y12600
X128502Y9425
X128061Y7112
X130077Y14337
X129358Y3251
X130519Y15179
X130015Y3251
X128606Y11824
X128342Y3251
X129660Y13520
X128999Y3861
X129332Y12800
X130940Y16200
X126940Y9400
X122740Y7200
X122903Y7722
X118940Y11000
X119247Y4000
X118711Y2800
X118605Y7000
X118940Y11800
X118808Y9400
X124540Y10200
X124140Y7200
X119679Y9400
X119753Y11074
X129940Y13883
X119654Y2778
X119740Y8700
X120211Y3150
X119753Y10160
X122940Y11000
X123411Y7678
X121083Y4129
X118184Y4550
X118140Y12600
X117440Y13411
X117440Y4671
X119740Y11800
X115140Y3000
X121140Y18925
X115740Y3406
X122140Y18400
X130298Y14758
X130740Y15600
X127711Y2845
X128411Y6755
X127248Y3311
X127332Y7173
X126140Y8600
X125140Y3600
X125740Y7600
X124790Y3892
X120584Y18800
X120540Y17400
X118940Y17400
X117852Y14398
X120540Y16600
X116368Y3048
X117026Y3471
X117874Y16916
X117671Y15138
X117417Y2896
X117898Y16104
X118940Y13400
X130940Y17900
X123640Y21500
X144649Y15800
X147049Y16600
X148649Y15000
X146249Y13400
X150249Y12578
X140548Y17721
X141449Y14178
X143849Y11800
X145449Y10200
X147049Y11000
X150592Y7702
X143849Y9378
X143049Y10200
X154641Y13454
X143049Y19600
X151405Y17746
X140649Y7778
X136649Y3200
X144299Y3250
X145799Y3200
X146549Y3600
X147299Y3200
X153799Y3200
X155049Y3327
X151449Y17000
X139849Y10400
X146449Y19400
X137049Y4600
X143849Y20400
X139849Y6300
X154718Y17150
X155042Y19440
X155468Y11131
X152008Y8262
X135449Y6800
X135449Y9200
X156385Y14418
X143449Y4800
X139603Y20784
X145449Y15800
X143849Y15800
X142414Y13400
X143849Y11000
X145449Y9400
X147849Y10200
X148649Y11778
X148649Y14200
X148649Y12600
X147049Y13400
X146249Y11800
X145449Y13400
X143049Y12600
X154641Y11935
X139849Y12800
X140649Y19600
X144049Y19400
X135649Y5400
X152249Y18600
X139849Y9500
X146649Y20400
X155731Y17458
X152821Y10290
X156639Y7062
X155473Y6138
X155473Y2948
X155715Y13592
X135449Y12200
X136749Y3750
X135449Y8200
X143592Y7100
X147049Y15800
X154297Y5251
X156149Y10400
X142974Y11786
X141348Y14935
X144600Y13310
X141450Y16459
X142974Y10973
X139520Y10058
X143076Y13386
X140129Y15646
X152829Y10871
X154937Y11278
X150899Y18271
X153083Y19761
X144498Y11786
X139316Y10566
X145449Y12600
X146066Y18217
X147249Y18800
X145449Y11800
X146124Y8636
X135571Y7746
X138649Y20800
X145449Y8600
X154349Y3900
X154349Y11329
X156649Y10200
X155006Y5772
X154277Y6096
X153649Y17200
X143378Y7752
X143177Y9423
X143076Y14224
X144249Y7400
X143863Y13411
X144027Y10200
X144649Y9400
X144649Y12600
X151011Y9425
X150570Y7112
X152586Y14337
X151867Y3251
X153028Y15179
X152524Y3251
X151116Y11824
X150851Y3251
X152170Y13520
X151508Y3861
X151841Y12800
X153449Y16200
X149449Y9400
X145249Y7200
X145412Y7722
X141449Y11000
X141757Y4000
X141221Y2800
X141114Y7000
X141449Y11800
X141317Y9400
X147049Y10200
X146649Y7200
X142189Y9400
X142263Y11074
X152449Y13883
X142163Y2778
X142249Y8700
X142721Y3150
X142263Y10160
X145449Y11000
X145921Y7678
X143592Y4129
X140693Y4550
X140649Y12600
X139950Y13411
X139950Y4671
X142249Y11800
X137649Y3000
X143649Y18925
X138249Y3406
X144649Y18400
X152807Y14758
X153249Y15600
X150221Y2845
X150920Y6755
X149757Y3311
X149842Y7173
X148649Y8600
X147649Y3600
X148249Y7600
X147299Y3892
X143094Y18800
X143049Y17400
X141449Y17400
X140362Y14398
X143049Y16600
X138878Y3048
X139535Y3471
X140383Y16916
X140180Y15138
X139926Y2896
X140407Y16104
X141449Y13400
X153449Y17900
X146149Y21500
X167156Y15800
X169556Y16600
X171156Y15000
X168756Y13400
X172756Y12578
X163055Y17721
X163956Y14178
X166356Y11800
X167956Y10200
X169556Y11000
X173099Y7702
X166356Y9378
X165556Y10200
X177148Y13454
X165556Y19600
X173912Y17746
X163156Y7778
X159156Y3200
X166806Y3250
X168306Y3200
X169056Y3600
X169806Y3200
X176306Y3200
X177556Y3327
X173956Y17000
X162356Y10400
X168956Y19400
X159556Y4600
X166356Y20400
X162356Y6300
X177225Y17150
X177549Y19440
X177975Y11131
X174515Y8262
X157956Y6800
X157956Y9200
X178892Y14418
X165956Y4800
X162110Y20784
X167956Y15800
X166356Y15800
X164921Y13400
X166356Y11000
X167956Y9400
X170356Y10200
X171156Y11778
X171156Y14200
X171156Y12600
X169556Y13400
X168756Y11800
X167956Y13400
X165556Y12600
X177148Y11935
X162356Y12800
X163156Y19600
X166556Y19400
X158156Y5400
X174756Y18600
X162356Y9500
X169156Y20400
X178238Y17458
X175328Y10290
X179146Y7062
X177980Y6138
X177980Y2948
X178222Y13592
X157956Y12200
X159256Y3750
X157956Y8200
X166099Y7100
X169556Y15800
X176804Y5251
X178656Y10400
X165481Y11786
X163855Y14935
X167107Y13310
X163957Y16459
X165481Y10973
X162027Y10058
X165583Y13386
X162636Y15646
X175336Y10871
X177444Y11278
X173406Y18271
X175590Y19761
X167005Y11786
X161823Y10566
X167956Y12600
X168573Y18217
X169756Y18800
X167956Y11800
X168631Y8636
X158078Y7746
X161156Y20800
X167956Y8600
X176856Y3900
X176856Y11329
X179156Y10200
X177513Y5772
X176784Y6096
X176156Y17200
X165885Y7752
X165684Y9423
X165583Y14224
X166756Y7400
X166370Y13411
X166534Y10200
X167156Y9400
X167156Y12600
X173518Y9425
X173077Y7112
X175093Y14337
X174374Y3251
X175535Y15179
X175031Y3251
X173623Y11824
X173358Y3251
X174677Y13520
X174015Y3861
X174348Y12800
X175956Y16200
X171956Y9400
X167756Y7200
X167919Y7722
X163956Y11000
X164264Y4000
X163728Y2800
X163621Y7000
X163956Y11800
X163824Y9400
X169556Y10200
X169156Y7200
X164696Y9400
X164770Y11074
X174956Y13883
X164670Y2778
X164756Y8700
X165228Y3150
X164770Y10160
X167956Y11000
X168428Y7678
X166099Y4129
X163200Y4550
X163156Y12600
X162457Y13411
X162457Y4671
X164756Y11800
X160156Y3000
X166156Y18925
X160756Y3406
X167156Y18400
X175314Y14758
X175756Y15600
X172728Y2845
X173427Y6755
X172264Y3311
X172349Y7173
X171156Y8600
X170156Y3600
X170756Y7600
X169806Y3892
X165601Y18800
X165556Y17400
X163956Y17400
X162869Y14398
X165556Y16600
X161385Y3048
X162042Y3471
X162890Y16916
X162687Y15138
X162433Y2896
X162914Y16104
X163956Y13400
X175956Y17900
X168656Y21500
X12399Y54050
X9999Y53250
X8399Y54850
X10799Y56450
X6799Y57272
X16501Y52129
X15599Y55672
X13199Y58050
X11599Y59650
X9999Y58850
X6456Y62148
X13199Y60472
X13999Y59650
X2407Y56396
X13999Y50250
X5643Y52104
X16399Y62072
X20399Y66650
X12749Y66600
X11249Y66650
X10499Y66250
X9749Y66650
X3249Y66650
X1999Y66523
X5599Y52850
X17199Y59450
X10599Y50450
X19999Y65250
X13199Y49450
X17199Y63550
X2330Y52700
X2006Y50410
X1581Y58719
X5040Y61588
X21599Y63050
X21599Y60650
X663Y55432
X13599Y65050
X17445Y49066
X11599Y54050
X13199Y54050
X14634Y56450
X13199Y58850
X11599Y60450
X9199Y59650
X8399Y58072
X8399Y55650
X8399Y57250
X9999Y56450
X10799Y58050
X11599Y56450
X13999Y57250
X2407Y57915
X17199Y57050
X16399Y50250
X12999Y50450
X21399Y64450
X4799Y51250
X17199Y60350
X10399Y49450
X1317Y52392
X4227Y59560
X409Y62788
X1575Y63712
X1575Y66902
X1333Y56258
X21599Y57650
X20299Y66100
X21599Y61650
X13456Y62750
X9999Y54050
X2752Y64599
X899Y59450
X14074Y58064
X15700Y54915
X12449Y56540
X15598Y53391
X14074Y58877
X17529Y59792
X13973Y56464
X16919Y54204
X4219Y58979
X2111Y58572
X6149Y51579
X3965Y50089
X12550Y58064
X17732Y59284
X11599Y57250
X10982Y51633
X9799Y51050
X11599Y58050
X10925Y61214
X21477Y62104
X18399Y49050
X11599Y61250
X2699Y65950
X2699Y58521
X399Y59650
X2042Y64078
X2771Y63754
X3399Y52650
X13670Y62098
X13871Y60427
X13973Y55626
X12799Y62450
X13185Y56439
X13021Y59650
X12399Y60450
X12399Y57250
X6037Y60425
X6478Y62738
X4462Y55513
X5181Y66599
X4020Y54671
X4524Y66599
X5932Y58026
X6197Y66599
X4879Y56330
X5540Y65989
X5207Y57050
X3599Y53650
X7599Y60450
X11799Y62650
X11636Y62128
X15599Y58850
X15291Y65850
X15828Y67050
X15934Y62850
X15599Y58050
X15731Y60450
X9999Y59650
X10399Y62650
X14859Y60450
X14785Y58776
X4599Y55967
X14885Y67072
X14799Y61150
X14328Y66700
X14785Y59690
X11599Y58850
X11128Y62172
X13456Y65721
X16355Y65300
X16399Y57250
X17098Y56439
X17098Y65179
X14799Y58050
X19399Y66850
X13399Y50925
X18799Y66444
X12399Y51450
X4241Y55092
X3799Y54250
X6828Y67005
X6128Y63095
X7291Y66539
X7206Y62677
X8399Y61250
X9399Y66250
X8799Y62250
X9749Y65958
X13955Y51050
X13999Y52450
X15599Y52450
X16687Y55452
X13999Y53250
X18170Y66802
X17513Y66379
X16665Y52934
X16868Y54712
X17122Y66954
X16641Y53746
X15599Y56450
X3599Y51950
X10899Y48350
X34908Y54050
X32508Y53250
X30908Y54850
X33308Y56450
X29308Y57272
X39010Y52129
X38108Y55672
X35708Y58050
X34108Y59650
X32508Y58850
X28966Y62148
X35708Y60472
X36508Y59650
X24916Y56396
X36508Y50250
X28153Y52104
X38908Y62072
X42908Y66650
X35258Y66600
X33758Y66650
X33008Y66250
X32258Y66650
X25758Y66650
X24508Y66523
X28108Y52850
X39708Y59450
X33108Y50450
X42508Y65250
X35708Y49450
X39708Y63550
X24839Y52700
X24515Y50410
X24090Y58719
X27549Y61588
X44108Y63050
X44108Y60650
X23172Y55432
X36108Y65050
X39954Y49066
X34108Y54050
X35708Y54050
X37143Y56450
X35708Y58850
X34108Y60450
X31708Y59650
X30908Y58072
X30908Y55650
X30908Y57250
X32508Y56450
X33308Y58050
X34108Y56450
X36508Y57250
X24916Y57915
X39708Y57050
X38908Y50250
X35508Y50450
X43908Y64450
X27308Y51250
X39708Y60350
X32908Y49450
X23826Y52392
X26736Y59560
X22918Y62788
X24084Y63712
X24084Y66902
X23842Y56258
X44108Y57650
X42808Y66100
X44108Y61650
X35966Y62750
X32508Y54050
X25261Y64599
X23408Y59450
X36584Y58064
X38209Y54915
X34958Y56540
X38108Y53391
X36584Y58877
X40038Y59792
X36482Y56464
X39428Y54204
X26728Y58979
X24620Y58572
X28659Y51579
X26474Y50089
X35060Y58064
X40241Y59284
X34108Y57250
X33492Y51633
X32308Y51050
X34108Y58050
X33434Y61214
X43986Y62104
X40908Y49050
X34108Y61250
X25208Y65950
X25208Y58521
X22908Y59650
X24551Y64078
X25281Y63754
X25908Y52650
X36180Y62098
X36380Y60427
X36482Y55626
X35308Y62450
X35695Y56439
X35531Y59650
X34908Y60450
X34908Y57250
X28546Y60425
X28987Y62738
X26971Y55513
X27690Y66599
X26529Y54671
X27033Y66599
X28442Y58026
X28706Y66599
X27388Y56330
X28049Y65989
X27717Y57050
X26108Y53650
X30108Y60450
X34308Y62650
X34145Y62128
X38108Y58850
X37801Y65850
X38337Y67050
X38443Y62850
X38108Y58050
X38240Y60450
X32508Y59650
X32908Y62650
X37369Y60450
X37295Y58776
X27108Y55967
X37395Y67072
X37308Y61150
X36837Y66700
X37295Y59690
X34108Y58850
X33637Y62172
X35966Y65721
X38865Y65300
X38908Y57250
X39608Y56439
X39608Y65179
X37308Y58050
X41908Y66850
X35908Y50925
X41308Y66444
X34908Y51450
X26750Y55092
X26308Y54250
X29337Y67005
X28638Y63095
X29800Y66539
X29716Y62677
X30908Y61250
X31908Y66250
X31308Y62250
X32258Y65958
X36464Y51050
X36508Y52450
X38108Y52450
X39196Y55452
X36508Y53250
X40680Y66802
X40023Y66379
X39174Y52934
X39378Y54712
X39632Y66954
X39151Y53746
X38108Y56450
X26108Y51950
X33408Y48350
X57415Y54050
X55015Y53250
X53415Y54850
X55815Y56450
X51815Y57272
X61517Y52129
X60615Y55672
X58215Y58050
X56615Y59650
X55015Y58850
X51473Y62148
X58215Y60472
X59015Y59650
X47423Y56396
X59015Y50250
X50660Y52104
X61415Y62072
X65415Y66650
X57765Y66600
X56265Y66650
X55515Y66250
X54765Y66650
X48265Y66650
X47015Y66523
X50615Y52850
X62215Y59450
X55615Y50450
X65015Y65250
X58215Y49450
X62215Y63550
X47346Y52700
X47022Y50410
X46597Y58719
X50056Y61588
X66615Y63050
X66615Y60650
X45679Y55432
X58615Y65050
X62461Y49066
X56615Y54050
X58215Y54050
X59650Y56450
X58215Y58850
X56615Y60450
X54215Y59650
X53415Y58072
X53415Y55650
X53415Y57250
X55015Y56450
X55815Y58050
X56615Y56450
X59015Y57250
X47423Y57915
X62215Y57050
X61415Y50250
X58015Y50450
X66415Y64450
X49815Y51250
X62215Y60350
X55415Y49450
X46333Y52392
X49243Y59560
X45425Y62788
X46591Y63712
X46591Y66902
X46349Y56258
X66615Y57650
X65315Y66100
X66615Y61650
X58473Y62750
X55015Y54050
X47768Y64599
X45915Y59450
X59091Y58064
X60716Y54915
X57465Y56540
X60615Y53391
X59091Y58877
X62545Y59792
X58989Y56464
X61935Y54204
X49235Y58979
X47127Y58572
X51166Y51579
X48981Y50089
X57567Y58064
X62748Y59284
X56615Y57250
X55999Y51633
X54815Y51050
X56615Y58050
X55941Y61214
X66493Y62104
X63415Y49050
X56615Y61250
X47715Y65950
X47715Y58521
X45415Y59650
X47058Y64078
X47788Y63754
X48415Y52650
X58687Y62098
X58887Y60427
X58989Y55626
X57815Y62450
X58202Y56439
X58038Y59650
X57415Y60450
X57415Y57250
X51053Y60425
X51494Y62738
X49478Y55513
X50197Y66599
X49036Y54671
X49540Y66599
X50949Y58026
X51213Y66599
X49895Y56330
X50556Y65989
X50224Y57050
X48615Y53650
X52615Y60450
X56815Y62650
X56652Y62128
X60615Y58850
X60308Y65850
X60844Y67050
X60950Y62850
X60615Y58050
X60747Y60450
X55015Y59650
X55415Y62650
X59876Y60450
X59802Y58776
X49615Y55967
X59902Y67072
X59815Y61150
X59344Y66700
X59802Y59690
X56615Y58850
X56144Y62172
X58473Y65721
X61371Y65300
X61415Y57250
X62115Y56439
X62115Y65179
X59815Y58050
X64415Y66850
X58415Y50925
X63815Y66444
X57415Y51450
X49257Y55092
X48815Y54250
X51844Y67005
X51145Y63095
X52307Y66539
X52223Y62677
X53415Y61250
X54415Y66250
X53815Y62250
X54765Y65958
X58971Y51050
X59015Y52450
X60615Y52450
X61703Y55452
X59015Y53250
X63187Y66802
X62530Y66379
X61681Y52934
X61885Y54712
X62139Y66954
X61658Y53746
X60615Y56450
X48615Y51950
X55915Y48350
X79925Y54050
X77525Y53250
X75925Y54850
X78325Y56450
X74325Y57272
X84026Y52129
X83125Y55672
X80725Y58050
X79125Y59650
X77525Y58850
X73982Y62148
X80725Y60472
X81525Y59650
X69933Y56396
X81525Y50250
X73169Y52104
X83925Y62072
X87925Y66650
X80275Y66600
X78775Y66650
X78025Y66250
X77275Y66650
X70775Y66650
X69525Y66523
X73125Y52850
X84725Y59450
X78125Y50450
X87525Y65250
X80725Y49450
X84725Y63550
X69856Y52700
X69532Y50410
X69106Y58719
X72566Y61588
X89125Y63050
X89125Y60650
X68189Y55432
X81125Y65050
X84971Y49066
X79125Y54050
X80725Y54050
X82160Y56450
X80725Y58850
X79125Y60450
X76725Y59650
X75925Y58072
X75925Y55650
X75925Y57250
X77525Y56450
X78325Y58050
X79125Y56450
X81525Y57250
X69933Y57915
X84725Y57050
X83925Y50250
X80525Y50450
X88925Y64450
X72325Y51250
X84725Y60350
X77925Y49450
X68843Y52392
X71753Y59560
X67935Y62788
X69101Y63712
X69101Y66902
X68859Y56258
X89125Y57650
X87825Y66100
X89125Y61650
X80982Y62750
X77525Y54050
X70277Y64599
X68425Y59450
X81600Y58064
X83226Y54915
X79974Y56540
X83124Y53391
X81600Y58877
X85054Y59792
X81498Y56464
X84445Y54204
X71745Y58979
X69637Y58572
X73675Y51579
X71491Y50089
X80076Y58064
X85258Y59284
X79125Y57250
X78508Y51633
X77325Y51050
X79125Y58050
X78450Y61214
X89003Y62104
X85925Y49050
X79125Y61250
X70225Y65950
X70225Y58521
X67925Y59650
X69568Y64078
X70297Y63754
X70925Y52650
X81196Y62098
X81397Y60427
X81498Y55626
X80325Y62450
X80711Y56439
X80547Y59650
X79925Y60450
X79925Y57250
X73563Y60425
X74004Y62738
X71988Y55513
X72707Y66599
X71546Y54671
X72050Y66599
X73458Y58026
X73723Y66599
X72404Y56330
X73066Y65989
X72733Y57050
X71125Y53650
X75125Y60450
X79325Y62650
X79162Y62128
X83125Y58850
X82817Y65850
X83353Y67050
X83460Y62850
X83125Y58050
X83257Y60450
X77525Y59650
X77925Y62650
X82385Y60450
X82311Y58776
X72125Y55967
X82411Y67072
X82325Y61150
X81853Y66700
X82311Y59690
X79125Y58850
X78653Y62172
X80982Y65721
X83881Y65300
X83925Y57250
X84624Y56439
X84624Y65179
X82325Y58050
X86925Y66850
X80925Y50925
X86325Y66444
X79925Y51450
X71767Y55092
X71325Y54250
X74353Y67005
X73654Y63095
X74817Y66539
X74732Y62677
X75925Y61250
X76925Y66250
X76325Y62250
X77275Y65958
X81480Y51050
X81525Y52450
X83125Y52450
X84212Y55452
X81525Y53250
X85696Y66802
X85039Y66379
X84191Y52934
X84394Y54712
X84648Y66954
X84167Y53746
X83125Y56450
X71125Y51950
X78425Y48350
X102432Y54050
X100032Y53250
X98432Y54850
X100832Y56450
X96832Y57272
X106533Y52129
X105632Y55672
X103232Y58050
X101632Y59650
X100032Y58850
X96489Y62148
X103232Y60472
X104032Y59650
X92440Y56396
X104032Y50250
X95676Y52104
X106432Y62072
X110432Y66650
X102782Y66600
X101282Y66650
X100532Y66250
X99782Y66650
X93282Y66650
X92032Y66523
X95632Y52850
X107232Y59450
X100632Y50450
X110032Y65250
X103232Y49450
X107232Y63550
X92363Y52700
X92039Y50410
X91613Y58719
X95073Y61588
X111632Y63050
X111632Y60650
X90696Y55432
X103632Y65050
X107478Y49066
X101632Y54050
X103232Y54050
X104667Y56450
X103232Y58850
X101632Y60450
X99232Y59650
X98432Y58072
X98432Y55650
X98432Y57250
X100032Y56450
X100832Y58050
X101632Y56450
X104032Y57250
X92440Y57915
X107232Y57050
X106432Y50250
X103032Y50450
X111432Y64450
X94832Y51250
X107232Y60350
X100432Y49450
X91350Y52392
X94260Y59560
X90442Y62788
X91608Y63712
X91608Y66902
X91366Y56258
X111632Y57650
X110332Y66100
X111632Y61650
X103489Y62750
X100032Y54050
X92784Y64599
X90932Y59450
X104107Y58064
X105733Y54915
X102481Y56540
X105631Y53391
X104107Y58877
X107561Y59792
X104005Y56464
X106952Y54204
X94252Y58979
X92144Y58572
X96182Y51579
X93998Y50089
X102583Y58064
X107765Y59284
X101632Y57250
X101015Y51633
X99832Y51050
X101632Y58050
X100957Y61214
X111510Y62104
X108432Y49050
X101632Y61250
X92732Y65950
X92732Y58521
X90432Y59650
X92075Y64078
X92804Y63754
X93432Y52650
X103703Y62098
X103904Y60427
X104005Y55626
X102832Y62450
X103218Y56439
X103054Y59650
X102432Y60450
X102432Y57250
X96070Y60425
X96511Y62738
X94495Y55513
X95214Y66599
X94053Y54671
X94557Y66599
X95965Y58026
X96230Y66599
X94911Y56330
X95573Y65989
X95240Y57050
X93632Y53650
X97632Y60450
X101832Y62650
X101669Y62128
X105632Y58850
X105324Y65850
X105860Y67050
X105967Y62850
X105632Y58050
X105764Y60450
X100032Y59650
X100432Y62650
X104892Y60450
X104818Y58776
X94632Y55967
X104918Y67072
X104832Y61150
X104360Y66700
X104818Y59690
X101632Y58850
X101160Y62172
X103489Y65721
X106388Y65300
X106432Y57250
X107131Y56439
X107131Y65179
X104832Y58050
X109432Y66850
X103432Y50925
X108832Y66444
X102432Y51450
X94274Y55092
X93832Y54250
X96860Y67005
X96161Y63095
X9600Y15800
X97239Y62677
X98432Y61250
X99432Y66250
X98832Y62250
X99782Y65958
X103987Y51050
X104032Y52450
X105632Y52450
X106719Y55452
X104032Y53250
X108203Y66802
X107546Y66379
X106698Y52934
X106901Y54712
X107155Y66954
X106674Y53746
X105632Y56450
X93632Y51950
X100932Y48350
X124941Y54050
X122541Y53250
X120941Y54850
X123341Y56450
X119341Y57272
X129043Y52129
X128141Y55672
X125741Y58050
X124141Y59650
X122541Y58850
X118998Y62148
X125741Y60472
X126541Y59650
X114949Y56396
X126541Y50250
X118186Y52104
X128941Y62072
X132941Y66650
X125291Y66600
X123791Y66650
X123041Y66250
X122291Y66650
X115791Y66650
X114541Y66523
X118141Y52850
X129741Y59450
X123141Y50450
X132541Y65250
X125741Y49450
X129741Y63550
X114872Y52700
X114548Y50410
X114123Y58719
X117582Y61588
X134141Y63050
X134141Y60650
X113205Y55432
X126141Y65050
X129987Y49066
X124141Y54050
X125741Y54050
X127176Y56450
X125741Y58850
X124141Y60450
X121741Y59650
X120941Y58072
X120941Y55650
X120941Y57250
X122541Y56450
X123341Y58050
X124141Y56450
X126541Y57250
X114949Y57915
X129741Y57050
X128941Y50250
X125541Y50450
X133941Y64450
X117341Y51250
X129741Y60350
X122941Y49450
X113859Y52392
X116769Y59560
X112951Y62788
X114117Y63712
X114117Y66902
X113875Y56258
X134141Y57650
X132841Y66100
X134141Y61650
X125998Y62750
X122541Y54050
X115294Y64599
X113441Y59450
X126616Y58064
X128242Y54915
X124991Y56540
X128140Y53391
X126616Y58877
X130071Y59792
X126515Y56464
X129461Y54204
X116761Y58979
X114653Y58572
X118692Y51579
X116507Y50089
X125092Y58064
X130274Y59284
X124141Y57250
X123525Y51633
X122341Y51050
X124141Y58050
X123467Y61214
X134019Y62104
X130941Y49050
X124141Y61250
X115241Y65950
X115241Y58521
X112941Y59650
X114584Y64078
X115313Y63754
X115941Y52650
X126213Y62098
X126413Y60427
X126515Y55626
X125341Y62450
X125727Y56439
X125563Y59650
X124941Y60450
X124941Y57250
X118579Y60425
X119020Y62738
X117004Y55513
X117723Y66599
X116562Y54671
X117066Y66599
X118475Y58026
X118739Y66599
X117421Y56330
X118082Y65989
X117749Y57050
X116141Y53650
X120141Y60450
X124341Y62650
X124178Y62128
X128141Y58850
X127834Y65850
X128370Y67050
X128476Y62850
X128141Y58050
X128273Y60450
X122541Y59650
X122941Y62650
X127402Y60450
X127328Y58776
X117141Y55967
X127427Y67072
X127341Y61150
X126870Y66700
X127328Y59690
X124141Y58850
X123670Y62172
X125998Y65721
X128897Y65300
X128941Y57250
X129641Y56439
X129641Y65179
X127341Y58050
X131941Y66850
X125941Y50925
X131341Y66444
X124941Y51450
X116783Y55092
X116341Y54250
X119370Y67005
X118671Y63095
X119833Y66539
X119749Y62677
X120941Y61250
X121941Y66250
X121341Y62250
X122291Y65958
X126497Y51050
X126541Y52450
X128141Y52450
X129229Y55452
X126541Y53250
X130713Y66802
X130055Y66379
X129207Y52934
X129410Y54712
X129664Y66954
X129183Y53746
X128141Y56450
X116141Y51950
X123441Y48350
X147448Y54050
X145048Y53250
X143448Y54850
X145848Y56450
X141848Y57272
X151550Y52129
X150648Y55672
X148248Y58050
X146648Y59650
X145048Y58850
X141505Y62148
X148248Y60472
X149048Y59650
X137456Y56396
X149048Y50250
X140693Y52104
X151448Y62072
X155448Y66650
X147798Y66600
X146298Y66650
X145548Y66250
X144798Y66650
X138298Y66650
X137048Y66523
X140648Y52850
X152248Y59450
X145648Y50450
X155048Y65250
X148248Y49450
X152248Y63550
X137379Y52700
X137055Y50410
X136630Y58719
X140089Y61588
X156648Y63050
X156648Y60650
X135712Y55432
X148648Y65050
X152494Y49066
X146648Y54050
X148248Y54050
X149683Y56450
X148248Y58850
X146648Y60450
X144248Y59650
X143448Y58072
X143448Y55650
X143448Y57250
X145048Y56450
X145848Y58050
X146648Y56450
X149048Y57250
X137456Y57915
X152248Y57050
X151448Y50250
X148048Y50450
X156448Y64450
X139848Y51250
X152248Y60350
X145448Y49450
X136366Y52392
X139276Y59560
X135458Y62788
X136624Y63712
X136624Y66902
X136382Y56258
X156648Y57650
X155348Y66100
X156648Y61650
X148505Y62750
X145048Y54050
X137801Y64599
X135948Y59450
X149123Y58064
X150749Y54915
X147498Y56540
X150647Y53391
X149123Y58877
X152578Y59792
X149022Y56464
X151968Y54204
X139268Y58979
X137160Y58572
X141199Y51579
X139014Y50089
X147599Y58064
X152781Y59284
X146648Y57250
X146032Y51633
X144848Y51050
X146648Y58050
X145974Y61214
X156526Y62104
X153448Y49050
X146648Y61250
X137748Y65950
X137748Y58521
X135448Y59650
X137091Y64078
X137820Y63754
X138448Y52650
X148720Y62098
X148920Y60427
X149022Y55626
X147848Y62450
X148234Y56439
X148070Y59650
X147448Y60450
X147448Y57250
X141086Y60425
X141527Y62738
X139511Y55513
X140230Y66599
X139069Y54671
X139573Y66599
X140982Y58026
X141246Y66599
X139928Y56330
X140589Y65989
X140256Y57050
X138648Y53650
X142648Y60450
X146848Y62650
X146685Y62128
X150648Y58850
X150341Y65850
X150877Y67050
X150983Y62850
X150648Y58050
X150780Y60450
X145048Y59650
X145448Y62650
X149909Y60450
X149835Y58776
X139648Y55967
X149934Y67072
X149848Y61150
X149377Y66700
X149835Y59690
X146648Y58850
X146177Y62172
X148505Y65721
X151404Y65300
X151448Y57250
X152148Y56439
X152148Y65179
X149848Y58050
X154448Y66850
X148448Y50925
X153848Y66444
X147448Y51450
X139290Y55092
X138848Y54250
X141877Y67005
X141177Y63095
X142340Y66539
X142256Y62677
X143448Y61250
X144448Y66250
X143848Y62250
X144798Y65958
X149004Y51050
X149048Y52450
X150648Y52450
X151736Y55452
X149048Y53250
X153220Y66802
X152562Y66379
X151714Y52934
X151917Y54712
X152171Y66954
X151690Y53746
X150648Y56450
X138648Y51950
X145948Y48350
X169955Y54050
X167555Y53250
X165955Y54850
X168355Y56450
X164355Y57272
X174057Y52129
X97324Y66539
X170755Y58050
X169155Y59650
X167555Y58850
X164012Y62148
X170755Y60472
X171555Y59650
X159963Y56396
X171555Y50250
X163200Y52104
X173955Y62072
X177955Y66650
X170305Y66600
X168805Y66650
X168055Y66250
X167305Y66650
X160805Y66650
X159555Y66523
X163155Y52850
X174755Y59450
X168155Y50450
X177555Y65250
X170755Y49450
X174755Y63550
X159886Y52700
X159562Y50410
X159137Y58719
X162596Y61588
X179155Y63050
X179155Y60650
X158219Y55432
X171155Y65050
X175001Y49066
X169155Y54050
X170755Y54050
X172190Y56450
X170755Y58850
X169155Y60450
X166755Y59650
X165955Y58072
X165955Y55650
X165955Y57250
X167555Y56450
X168355Y58050
X169155Y56450
X171555Y57250
X159963Y57915
X174755Y57050
X173955Y50250
X170555Y50450
X178955Y64450
X162355Y51250
X174755Y60350
X167955Y49450
X158873Y52392
X161783Y59560
X157965Y62788
X159131Y63712
X159131Y66902
X158889Y56258
X179155Y57650
X177855Y66100
X179155Y61650
X171012Y62750
X167555Y54050
X160308Y64599
X158455Y59450
X171630Y58064
X173256Y54915
X170005Y56540
X173154Y53391
X171630Y58877
X175085Y59792
X171529Y56464
X174475Y54204
X161775Y58979
X159667Y58572
X163706Y51579
X161521Y50089
X170106Y58064
X175288Y59284
X169155Y57250
X168538Y51633
X167355Y51050
X169155Y58050
X168481Y61214
X179033Y62104
X175955Y49050
X169155Y61250
X160255Y65950
X160255Y58521
X157955Y59650
X159598Y64078
X160327Y63754
X160955Y52650
X171227Y62098
X171427Y60427
X171529Y55626
X170355Y62450
X170741Y56439
X170577Y59650
X169955Y60450
X169955Y57250
X163593Y60425
X164034Y62738
X162018Y55513
X162737Y66599
X161576Y54671
X162080Y66599
X163489Y58026
X163753Y66599
X162435Y56330
X163096Y65989
X162763Y57050
X161155Y53650
X165155Y60450
X169355Y62650
X169192Y62128
X173155Y58850
X172848Y65850
X173384Y67050
X173490Y62850
X173155Y58050
X173287Y60450
X167555Y59650
X167955Y62650
X172416Y60450
X172342Y58776
X162155Y55967
X172441Y67072
X172355Y61150
X171884Y66700
X172342Y59690
X169155Y58850
X168684Y62172
X171012Y65721
X173911Y65300
X173955Y57250
X174655Y56439
X174655Y65179
X172355Y58050
X176955Y66850
X170955Y50925
X176355Y66444
X169955Y51450
X161797Y55092
X161355Y54250
X164384Y67005
X163684Y63095
X164847Y66539
X164763Y62677
X165955Y61250
X166955Y66250
X166355Y62250
X167305Y65958
X171511Y51050
X171555Y52450
X173155Y52450
X174243Y55452
X171555Y53250
X175727Y66802
X175069Y66379
X174221Y52934
X174424Y54712
X174678Y66954
X174197Y53746
X173155Y56450
X161155Y51950
X168455Y48350
X12900Y21000
X17100Y21000
X15000Y19700
X12000Y16600
X13600Y15000
X11200Y13400
X15200Y12578
X5498Y17721
X6400Y14178
X8800Y11800
X10400Y10200
X12000Y11000
X15543Y7702
X35407Y21000
X39607Y21000
X37507Y19700
X8800Y9378
X8000Y10200
X19592Y13454
X8000Y19600
X16356Y17746
X5600Y7778
X1600Y3200
X9250Y3250
X10750Y3200
X11500Y3600
X57916Y21000
X62116Y21000
X60016Y19700
X12250Y3200
X18750Y3200
X20000Y3327
X16400Y17000
X4800Y10400
X11400Y19400
X2000Y4600
X8800Y20400
X4800Y6300
X19669Y17150
X80423Y21000
X84623Y21000
X82523Y19700
X19993Y19440
X20418Y11131
X16959Y8262
X400Y6800
X400Y9200
X21336Y14418
X8400Y4800
X4554Y20784
X10400Y15800
X8800Y15800
X102933Y21000
X107133Y21000
X105033Y19700
X7365Y13400
X8800Y11000
X10400Y9400
X12800Y10200
X13600Y11778
X13600Y14200
X13600Y12600
X12000Y13400
X11200Y11800
X10400Y13400
X125440Y21000
X129640Y21000
X127540Y19700
X8000Y12600
X19592Y11935
X4800Y12800
X5600Y19600
X9000Y19400
X600Y5400
X17200Y18600
X4800Y9500
X11600Y20400
X20682Y17458
X147949Y21000
X152149Y21000
X150049Y19700
X17772Y10290
X21590Y7062
X20424Y6138
X20424Y2948
X20666Y13592
X400Y12200
X1700Y3750
X400Y8200
X8543Y7100
X12000Y15800
X170456Y21000
X174656Y21000
X172556Y19700
X19247Y5251
X21100Y10400
X7925Y11786
X6299Y14935
X9550Y13310
X6401Y16459
X7925Y10973
X4470Y10058
X8026Y13386
X5080Y15646
X9099Y48850
X4899Y48850
X6999Y50150
X17780Y10871
X19888Y11278
X15850Y18271
X18034Y19761
X9449Y11786
X4267Y10566
X10400Y12600
X11017Y18217
X12200Y18800
X10400Y11800
X31608Y48850
X27408Y48850
X29508Y50150
X11074Y8636
X522Y7746
X3600Y20800
X10400Y8600
X19300Y3900
X19300Y11329
X21600Y10200
X19957Y5772
X19228Y6096
X18600Y17200
X54115Y48850
X49915Y48850
X52015Y50150
X8329Y7752
X8128Y9423
X8026Y14224
X9200Y7400
X8814Y13411
X8978Y10200
X9600Y9400
X9600Y12600
X15962Y9425
X15521Y7112
X76625Y48850
X72425Y48850
X74525Y50150
X17537Y14337
X16818Y3251
X17979Y15179
X17475Y3251
X16067Y11824
X15802Y3251
X17120Y13520
X16459Y3861
X16792Y12800
X18400Y16200
X99132Y48850
X94932Y48850
X97032Y50150
X14400Y9400
X10200Y7200
X10363Y7722
X6400Y11000
X6707Y4000
X6171Y2800
X6065Y7000
X6400Y11800
X6268Y9400
X12000Y10200
X121641Y48850
X117441Y48850
X119541Y50150
X11600Y7200
X7140Y9400
X7214Y11074
X17400Y13883
X7114Y2778
X7200Y8700
X7671Y3150
X7214Y10160
X10400Y11000
X10871Y7678
X144148Y48850
X139948Y48850
X142048Y50150
X8543Y4129
X5644Y4550
X5600Y12600
X4901Y13411
X4901Y4671
X7200Y11800
X2600Y3000
X8600Y18925
X3200Y3406
X9600Y18400
X166655Y48850
X162455Y48850
X164555Y50150
X17758Y14758
X18200Y15600
X15171Y2845
X15871Y6755
X14708Y3311
X14793Y7173
X13600Y8600
X12600Y3600
X13200Y7600
X173155Y55672
M30